<svg width="24" height="24" viewBox="0 0 24 24" fill="black" xmlns="http://www.w3.org/2000/svg">
<path d="M20 12C20 7.58172 16.4183 4 12 4C7.58172 4 4 7.58172 4 12C4 16.4183 7.58172 20 12 20C16.4183 20 20 16.4183 20 12ZM15.6836 7.05176C16.0429 6.93198 16.4392 7.02514 16.707 7.29297C16.9749 7.5608 17.068 7.95707 16.9482 8.31641L14.9482 14.3164C14.8487 14.6148 14.6148 14.8487 14.3164 14.9482L8.31641 16.9482C7.95707 17.068 7.5608 16.9749 7.29297 16.707C7.02514 16.4392 6.93198 16.0429 7.05176 15.6836L9.05176 9.68359L9.09473 9.5752C9.21027 9.32892 9.42236 9.13892 9.68359 9.05176L15.6836 7.05176ZM10.79 10.79L9.58008 14.4189L13.209 13.209L14.4189 9.58008L10.79 10.79ZM22 12C22 17.5228 17.5228 22 12 22C6.47715 22 2 17.5228 2 12C2 6.47715 6.47715 2 12 2C17.5228 2 22 6.47715 22 12Z"/>
</svg>
