<svg width="24" height="24" viewBox="0 0 24 24" fill="black" xmlns="http://www.w3.org/2000/svg">
<path d="M18 5C18 4.44772 17.5523 4 17 4H7C6.44772 4 6 4.44772 6 5V19.1309L7.44531 18.168L7.52148 18.1221C7.9075 17.9114 8.39111 17.977 8.70703 18.293L10 19.5859L11.293 18.293L11.3691 18.2246C11.7619 17.9043 12.3409 17.9269 12.707 18.293L14 19.5859L15.293 18.293L15.3584 18.2334C15.6956 17.9508 16.1828 17.9201 16.5547 18.168L18 19.1309V5ZM15 14C15.5523 14 16 14.4477 16 15C16 15.5523 15.5523 16 15 16H9C8.44772 16 8 15.5523 8 15C8 14.4477 8.44772 14 9 14H15ZM15 10C15.5523 10 16 10.4477 16 11C16 11.5523 15.5523 12 15 12H9C8.44772 12 8 11.5523 8 11C8 10.4477 8.44772 10 9 10H15ZM15 6C15.5523 6 16 6.44772 16 7C16 7.55228 15.5523 8 15 8H9C8.44772 8 8 7.55228 8 7C8 6.44772 8.44772 6 9 6H15ZM20 21C20 21.3688 19.7968 21.7078 19.4717 21.8818C19.1466 22.0557 18.7521 22.0366 18.4453 21.832L16.127 20.2861L14.707 21.707C14.3165 22.0976 13.6835 22.0976 13.293 21.707L12 20.4141L10.707 21.707C10.3165 22.0976 9.68349 22.0976 9.29297 21.707L7.87207 20.2861L5.55469 21.832C5.2479 22.0366 4.85344 22.0557 4.52832 21.8818C4.20316 21.7078 4 21.3688 4 21V5C4 3.34315 5.34315 2 7 2H17C18.6569 2 20 3.34315 20 5V21Z"/>
</svg>
