<svg width="24" height="24" viewBox="0 0 24 24" fill="black" xmlns="http://www.w3.org/2000/svg">
<path d="M4 15C4.55228 15 5 15.4477 5 16V18C5 18.5523 5.44772 19 6 19H8C8.55228 19 9 19.4477 9 20C9 20.5523 8.55228 21 8 21H6C4.34315 21 3 19.6569 3 18V16C3 15.4477 3.44772 15 4 15Z" />
<path d="M20 15C20.5523 15 21 15.4477 21 16V18C21 19.6569 19.6569 21 18 21H16C15.4477 21 15 20.5523 15 20C15 19.4477 15.4477 19 16 19H18C18.5523 19 19 18.5523 19 18V16C19 15.4477 19.4477 15 20 15Z" />
<path d="M14 13C14.7957 13 15.5585 13.3163 16.1211 13.8789C16.6837 14.4415 17 15.2043 17 16V17C17 17.5523 16.5523 18 16 18C15.4477 18 15 17.5523 15 17V16C15 15.7348 14.8946 15.4805 14.707 15.293C14.5195 15.1054 14.2652 15 14 15H10C9.73478 15 9.48051 15.1054 9.29297 15.293C9.10543 15.4805 9 15.7348 9 16V17C9 17.5523 8.55228 18 8 18C7.44772 18 7 17.5523 7 17V16C7 15.2043 7.3163 14.4415 7.87891 13.8789C8.44151 13.3163 9.20435 13 10 13H14Z" />
<path d="M12 6C12.7957 6 13.5585 6.3163 14.1211 6.87891C14.6837 7.44151 15 8.20435 15 9C15 9.79565 14.6837 10.5585 14.1211 11.1211C13.5585 11.6837 12.7957 12 12 12C11.2043 12 10.4415 11.6837 9.87891 11.1211C9.3163 10.5585 9 9.79565 9 9C9 8.20435 9.3163 7.44151 9.87891 6.87891C10.4415 6.3163 11.2043 6 12 6ZM12 8C11.7348 8 11.4805 8.10543 11.293 8.29297C11.1054 8.48051 11 8.73478 11 9C11 9.26522 11.1054 9.51949 11.293 9.70703C11.4805 9.89457 11.7348 10 12 10C12.2652 10 12.5195 9.89457 12.707 9.70703C12.8946 9.51949 13 9.26522 13 9C13 8.73478 12.8946 8.48051 12.707 8.29297C12.5195 8.10543 12.2652 8 12 8Z" />
<path d="M8 3C8.55228 3 9 3.44772 9 4C9 4.55228 8.55228 5 8 5H6C5.44772 5 5 5.44772 5 6V8C5 8.55228 4.55228 9 4 9C3.44772 9 3 8.55228 3 8V6C3 4.34315 4.34315 3 6 3H8Z" />
<path d="M18 3C19.6569 3 21 4.34315 21 6V8C21 8.55228 20.5523 9 20 9C19.4477 9 19 8.55228 19 8V6C19 5.44772 18.5523 5 18 5H16C15.4477 5 15 4.55228 15 4C15 3.44772 15.4477 3 16 3H18Z" />
</svg>
